<?xml version="1.0" encoding="utf-8"?>
<!-- Generator: Adobe Illustrator 19.2.1, SVG Export Plug-In . SVG Version: 6.00 Build 0)  -->
<svg version="1.1" id="Layer_1" xmlns="http://www.w3.org/2000/svg" xmlns:xlink="http://www.w3.org/1999/xlink" x="0px" y="0px"
	 viewBox="0 0 400 400" style="enable-background:new 0 0 400 400;" xml:space="preserve">
<style type="text/css">
	.st0{fill:#FFEE00;}
</style>
<title>e16-logo-quad</title>
<g>
	<path class="black" d="M183.7,121.2h-20.8v55.6h10.8v-20.9h10c11,0,18.3-7.2,18.3-17.3S194.7,121.2,183.7,121.2 M182.4,146.5h-8.6v-15.9h8.6
		c5.4,0,8.7,3.1,8.7,8S187.8,146.5,182.4,146.5"/>
	<path class="black" d="M316.9,178c11.2,0,19.7-7.4,19.7-17.9S329.5,143,319,143c-6,0-10.2,2.8-12.1,5.6c1.2-9.6,8.2-14.6,16.8-14.6
		c2.9,0,5.7,0.7,8.4,1.8l3-8.8c-3.3-1.7-7-2.5-10.7-2.4c-16.8,0-28.2,11.6-28.2,29.9C296.3,170,305.8,178,316.9,178 M316.8,151.9
		c4.9,0,9,3.2,9,8.5c0,5.3-4.1,8.6-9,8.6c-4.7,0-8.9-3.4-8.9-8.6S312,151.9,316.8,151.9"/>
	<polygon class="st0" points="146.3,149 118.5,121.2 118.5,176.8 	"/>
	<path class="black" d="M266.7,135.5v7.3h12.2v34h10.7v-50.9h-9.3C279.3,131.1,274.1,135.4,266.7,135.5"/>
	<polygon class="black" points="133.1,231.1 142.2,245.8 155.2,245.8 140.6,223.6 	"/>
	<polygon class="black" points="155.2,190.1 142.6,190.1 133.2,204.9 140.7,212.4 	"/>
	<polygon class="black" points="105.5,190.1 118.5,210 118.5,190.1 	"/>
	<polygon class="black" points="105.4,245.8 118.1,245.8 118.5,245.1 118.5,225.8 	"/>
	<path class="st0" d="M319.1,212c-6,0-10.2,2.8-12.1,5.6c1.2-9.6,8.2-14.6,16.9-14.6c2.9,0,5.7,0.7,8.4,1.8l3-8.8
		c-3.3-1.7-7-2.5-10.7-2.4c-16.8,0-28.2,11.6-28.2,29.9c0,15.4,9.5,23.4,20.6,23.4s19.7-7.4,19.7-17.9S329.5,212,319.1,212
		 M316.9,237.9c-4.7,0-8.9-3.4-8.9-8.6s4.1-8.5,8.9-8.5s9,3.2,9,8.5C325.9,234.5,321.8,237.9,316.9,237.9"/>
	<rect x="75.4" y="190.1" width="24" height="10.2"/>
	<rect x="75.4" y="235.6" width="24" height="10.2"/>
	<rect x="75.4" y="213.1" width="21.7" height="9.6"/>
	<path d="M183.7,190.1h-10v9.4h8.6c5.4,0,8.7,3.1,8.7,8c0,4.8-3.3,7.9-8.7,7.9h-8.6v9.3h10c11,0,18.3-7.2,18.3-17.3
		S194.7,190.1,183.7,190.1"/>
	<polygon class="st0" points="146.3,218 140.7,212.4 133.2,204.9 118.5,190.1 118.5,210 118.5,225.8 118.5,245.1 118.5,245.8
		133.1,231.1 140.6,223.6 	"/>
	<polygon class="st0" points="75.4,190.1 64.6,190.1 64.6,245.8 75.4,245.8 75.4,235.6 75.4,222.6 75.4,213.1 75.4,200.4 	"/>
	<polygon points="75.4,121.2 64.6,121.2 64.6,176.8 75.4,176.8 99.4,176.8 99.4,166.6 75.4,166.6 75.4,153.6 97.2,153.6 97.2,144.1
		75.4,144.1 75.4,131.4 99.4,131.4 99.4,121.2 	"/>
	<polygon class="st0" points="173.8,199.6 173.8,190.1 162.9,190.1 162.9,245.8 173.8,245.8 173.8,224.8 173.8,215.5 	"/>
	<path d="M266.7,204.4v7.3h12.2v-13.2C276.6,202,272.3,204.4,266.7,204.4"/>
	<polygon class="st0" points="278.8,198.6 278.8,211.6 278.8,245.8 278.9,245.8 289.6,245.8 289.6,194.9 289.6,190.1 278.8,190.1
		"/>
	<path d="M316.9,220.8c-4.9,0-8.9,3.2-8.9,8.5c0,5.3,4.2,8.6,8.9,8.6c4.9,0,9-3.3,9-8.6C325.9,224,321.8,220.8,316.9,220.8"/>
	<path d="M234.2,189c-15.1,0-28.5,11.1-28.5,29s13.5,28.9,28.5,28.9s28.6-11.1,28.6-28.9S249.4,189,234.2,189 M234.2,237.2
		c-10.7,0-19.3-8.7-19.3-19.3c0-10.7,8.7-19.3,19.3-19.3c10.7,0,19.3,8.7,19.3,19.3l0,0C253.6,228.6,244.9,237.2,234.2,237.2
		L234.2,237.2"/>
	<path class="st0" d="M234.3,198.6c-10.7,0-19.3,8.6-19.3,19.3c0,10.7,8.6,19.3,19.3,19.3s19.3-8.6,19.3-19.3
		C253.6,207.2,244.9,198.6,234.3,198.6L234.3,198.6"/>
	<path class="st0" d="M234.3,170c10.7,0,19.3-8.7,19.3-19.3c0-10.7-8.7-19.3-19.3-19.3c-10.7,0-19.3,8.7-19.3,19.3l0,0
		C214.9,161.2,223.6,170,234.3,170L234.3,170"/>
</g>
</svg>
