<?xml version="1.0" encoding="utf-8"?>
<!-- Generator: Adobe Illustrator 19.2.1, SVG Export Plug-In . SVG Version: 6.00 Build 0)  -->
<svg version="1.1" id="Layer_1" xmlns="http://www.w3.org/2000/svg" xmlns:xlink="http://www.w3.org/1999/xlink" x="0px" y="0px"
	 viewBox="0 0 400 400" style="enable-background:new 0 0 400 400;" xml:space="preserve">
<style type="text/css">
	.st0{fill:url(#SVGID_1_);}
	.st1{fill:url(#SVGID_2_);}
	.st2{fill:url(#SVGID_3_);}
	.st3{fill:url(#SVGID_4_);}
	.st4{fill:url(#SVGID_5_);}
	.st5{fill:url(#SVGID_6_);}
</style>
<title>sv-logo-quad</title>
<g>
	<g>
		<path d="M94.6,211.8c2,2.8,5.2,4.5,8.6,4.5c2.6,0,4.8-1.1,4.8-2.8c0-1.6-2.2-2.5-5-3.4c-5.1-1.7-11.1-3.3-11.1-9.7
			c0-5.9,5.1-8.8,10.8-8.8c3.6,0,7.1,1.2,10,3.4l-3.7,5.1c-1.8-1.7-4.1-2.7-6.6-2.6c-2.1,0-4,0.8-4,2.8c0,2.2,2.4,3.1,5.9,4.3
			c4.9,1.6,10,2.6,10,8.4c0,5.9-5.4,9.2-11.6,9.2c-4.7,0-9.9-1.9-12.9-5.7L94.6,211.8z"/>
		<path d="M161.8,221.4h-6.4v-17.5c0-4.1-2.1-6.2-5-6.2c-3.2,0-6,2.4-6,7.4v16.2h-6.3v-17.4c0-4.1-2.2-6.2-5.1-6.2
			c-3.1,0-6,2.4-6,7.4v16.2h-6.4v-29h6.2v3.9c1.7-2.9,4.8-4.6,8.1-4.6c3.4,0,6.5,1.9,8,4.9c2-3,5.4-4.9,9-4.9
			c5.1,0,9.9,3.4,9.9,10.5L161.8,221.4L161.8,221.4z"/>
		<path d="M204.9,219.8c-1.3,1.4-3.2,2.3-5.2,2.2c-3,0.1-5.7-1.7-6.6-4.6c-2.7,2.9-6.6,4.6-10.6,4.6c-7,0-13.9-5.3-13.9-15.1
			c0-10,7.4-15.1,14.4-15.1c3.5,0,6.9,1.3,9.4,3.9v-3.4h6.2v20.8c-0.2,1.1,0.6,2.2,1.7,2.3c0.1,0,0.3,0,0.4,0c0.7,0,1.4-0.3,2-0.7
			L204.9,219.8z M192.3,206.8c0-6.1-4.4-9.2-8.8-9.2c-4.3,0-8.7,3-8.7,9.2s4.2,9.4,8.6,9.4C187.8,216.2,192.3,213.1,192.3,206.8z"/>
		<path d="M227.2,192.7l-1.4,6.4c-1.2-0.5-2.4-0.7-3.7-0.7c-3.2,0-5.9,2-5.9,7v16h-6.4v-29h6.2v3.6c1.5-2.6,4.4-4.1,7.4-3.9
			C224.7,192,226,192.3,227.2,192.7z"/>
		<path d="M237.2,198.3h-5v-5.9h5V185h6.4v7.4h6.9v5.9h-6.9v13.3c0,3.2,1.9,4.5,4.2,4.5c1.3,0,2.5-0.4,3.6-1l2.1,5.1
			c-2.1,1.2-4.5,1.8-6.9,1.8c-4.9,0-9.4-3.1-9.4-9.9L237.2,198.3L237.2,198.3z"/>
		<path d="M284.3,209.7h-21.1c1,4.2,4.9,6.2,8.6,6.2c3.2,0.1,6.3-1.4,8.2-4l4.1,4c-3,3.8-7.6,6.1-12.5,6c-7.5,0-15.1-5.3-15.1-15.3
			s7.3-15.1,14.8-15.1c7.1,0,13.2,4.7,13.2,14.5C284.7,207.3,284.6,208.5,284.3,209.7z M263.1,204.5h15.2c0.1-3.8-2.8-7-6.6-7.1
			c-0.2,0-0.4,0-0.6,0C267,197.2,263.5,200.4,263.1,204.5z"/>
		<path d="M310,192.7l-1.4,6.4c-1.2-0.5-2.4-0.7-3.7-0.7c-3.2,0-5.9,2-5.9,7v16h-6.4v-29h6.2v3.6c1.5-2.6,4.4-4.1,7.4-3.9
			C307.5,192,308.8,192.3,310,192.7z"/>
		<path d="M149.7,267.4l-11.6-29h7.1l7.6,21.1l7.6-21.1h7.1l-11.6,29H149.7L149.7,267.4z"/>
		<path d="M200.3,252.8c0,8.4-6.8,15.2-15.2,15.2s-15.2-6.8-15.2-15.2c0-8.4,6.8-15.2,15.2-15.2c8.2-0.2,15,6.2,15.2,14.3
			C200.3,252.2,200.3,252.5,200.3,252.8z M176.3,252.7c0,5.4,3.7,9.3,8.9,9.3s8.9-3.9,8.9-9.3s-3.7-9.2-8.9-9.2
			C179.9,243.5,176.3,247.4,176.3,252.7z"/>
		<path d="M208.4,244.2h-5v-5.9h5v-7.4h6.4v7.4h6.9v5.9h-6.9v13.3c0,3.2,1.9,4.5,4.2,4.5c1.3,0,2.5-0.4,3.6-1l2.1,5.1
			c-2.1,1.2-4.4,1.8-6.9,1.8c-4.9,0-9.4-3.1-9.4-9.9L208.4,244.2L208.4,244.2z"/>
		<path d="M254.3,255.7h-21.1c1,4.2,4.9,6.2,8.6,6.2c3.2,0.1,6.3-1.4,8.2-4l4.1,4c-3,3.9-7.6,6.1-12.5,6.1
			c-7.5,0-15.1-5.3-15.1-15.3s7.3-15.1,14.8-15.1c7.1,0,13.2,4.7,13.2,14.5C254.6,253.3,254.5,254.5,254.3,255.7z M233,250.4h15.2
			c0.1-3.8-2.8-7-6.6-7.1c-0.2,0-0.4,0-0.6,0C236.9,243.2,233.4,246.3,233,250.4z"/>
	</g>
	
		<linearGradient id="SVGID_1_" gradientUnits="userSpaceOnUse" x1="94.5004" y1="278.8" x2="450.7254" y2="278.8" gradientTransform="matrix(1 0 0 1 0 -158)">
		<stop  offset="0" style="stop-color:#00EF77"/>
		<stop  offset="0" style="stop-color:#05EF75"/>
		<stop  offset="4.000000e-02" style="stop-color:#3FF15A"/>
		<stop  offset="8.000000e-02" style="stop-color:#72F342"/>
		<stop  offset="0.12" style="stop-color:#9DF52E"/>
		<stop  offset="0.16" style="stop-color:#C1F71D"/>
		<stop  offset="0.2" style="stop-color:#DCF810"/>
		<stop  offset="0.25" style="stop-color:#EFF807"/>
		<stop  offset="0.29" style="stop-color:#FBF902"/>
		<stop  offset="0.33" style="stop-color:#FFF900"/>
		<stop  offset="0.39" style="stop-color:#FFD62A"/>
		<stop  offset="0.53" style="stop-color:#FF7E94"/>
		<stop  offset="0.67" style="stop-color:#FF25FF"/>
		<stop  offset="0.72" style="stop-color:#C15AFF"/>
		<stop  offset="0.78" style="stop-color:#878CFF"/>
		<stop  offset="0.83" style="stop-color:#57B5FF"/>
		<stop  offset="0.88" style="stop-color:#31D5FF"/>
		<stop  offset="0.93" style="stop-color:#16ECFF"/>
		<stop  offset="0.97" style="stop-color:#06FAFF"/>
		<stop  offset="1" style="stop-color:#00FFFF"/>
	</linearGradient>
	<circle class="st0" cx="126.8" cy="120.8" r="27.5"/>
	
		<linearGradient id="SVGID_2_" gradientUnits="userSpaceOnUse" x1="96.9482" y1="279.1" x2="410.3046" y2="279.1" gradientTransform="matrix(1 0 0 1 0 -158)">
		<stop  offset="0" style="stop-color:#00EF77"/>
		<stop  offset="0" style="stop-color:#05EF75"/>
		<stop  offset="4.000000e-02" style="stop-color:#3FF15A"/>
		<stop  offset="8.000000e-02" style="stop-color:#72F342"/>
		<stop  offset="0.12" style="stop-color:#9DF52E"/>
		<stop  offset="0.16" style="stop-color:#C1F71D"/>
		<stop  offset="0.2" style="stop-color:#DCF810"/>
		<stop  offset="0.25" style="stop-color:#EFF807"/>
		<stop  offset="0.29" style="stop-color:#FBF902"/>
		<stop  offset="0.33" style="stop-color:#FFF900"/>
		<stop  offset="0.39" style="stop-color:#FFD62A"/>
		<stop  offset="0.53" style="stop-color:#FF7E94"/>
		<stop  offset="0.67" style="stop-color:#FF25FF"/>
		<stop  offset="0.72" style="stop-color:#C15AFF"/>
		<stop  offset="0.78" style="stop-color:#878CFF"/>
		<stop  offset="0.83" style="stop-color:#57B5FF"/>
		<stop  offset="0.88" style="stop-color:#31D5FF"/>
		<stop  offset="0.93" style="stop-color:#16ECFF"/>
		<stop  offset="0.97" style="stop-color:#06FAFF"/>
		<stop  offset="1" style="stop-color:#00FFFF"/>
	</linearGradient>
	<circle class="st1" cx="177.2" cy="121.1" r="11"/>
	
		<linearGradient id="SVGID_3_" gradientUnits="userSpaceOnUse" x1="71.147" y1="315.5" x2="333.3965" y2="315.5" gradientTransform="matrix(1 0 0 1 0 -158)">
		<stop  offset="0" style="stop-color:#00EF77"/>
		<stop  offset="0" style="stop-color:#05EF75"/>
		<stop  offset="4.000000e-02" style="stop-color:#3FF15A"/>
		<stop  offset="8.000000e-02" style="stop-color:#72F342"/>
		<stop  offset="0.12" style="stop-color:#9DF52E"/>
		<stop  offset="0.16" style="stop-color:#C1F71D"/>
		<stop  offset="0.2" style="stop-color:#DCF810"/>
		<stop  offset="0.25" style="stop-color:#EFF807"/>
		<stop  offset="0.29" style="stop-color:#FBF902"/>
		<stop  offset="0.33" style="stop-color:#FFF900"/>
		<stop  offset="0.39" style="stop-color:#FFD62A"/>
		<stop  offset="0.53" style="stop-color:#FF7E94"/>
		<stop  offset="0.67" style="stop-color:#FF25FF"/>
		<stop  offset="0.72" style="stop-color:#C15AFF"/>
		<stop  offset="0.78" style="stop-color:#878CFF"/>
		<stop  offset="0.83" style="stop-color:#57B5FF"/>
		<stop  offset="0.88" style="stop-color:#31D5FF"/>
		<stop  offset="0.93" style="stop-color:#16ECFF"/>
		<stop  offset="0.97" style="stop-color:#06FAFF"/>
		<stop  offset="1" style="stop-color:#00FFFF"/>
	</linearGradient>
	<circle class="st2" cx="181.7" cy="157.5" r="18.3"/>
	
		<linearGradient id="SVGID_4_" gradientUnits="userSpaceOnUse" x1="18.2876" y1="242.2" x2="358.9976" y2="242.2" gradientTransform="matrix(1 0 0 1 0 -158)">
		<stop  offset="0" style="stop-color:#00EF77"/>
		<stop  offset="0" style="stop-color:#05EF75"/>
		<stop  offset="4.000000e-02" style="stop-color:#3FF15A"/>
		<stop  offset="8.000000e-02" style="stop-color:#72F342"/>
		<stop  offset="0.12" style="stop-color:#9DF52E"/>
		<stop  offset="0.16" style="stop-color:#C1F71D"/>
		<stop  offset="0.2" style="stop-color:#DCF810"/>
		<stop  offset="0.25" style="stop-color:#EFF807"/>
		<stop  offset="0.29" style="stop-color:#FBF902"/>
		<stop  offset="0.33" style="stop-color:#FFF900"/>
		<stop  offset="0.39" style="stop-color:#FFD62A"/>
		<stop  offset="0.53" style="stop-color:#FF7E94"/>
		<stop  offset="0.67" style="stop-color:#FF25FF"/>
		<stop  offset="0.72" style="stop-color:#C15AFF"/>
		<stop  offset="0.78" style="stop-color:#878CFF"/>
		<stop  offset="0.83" style="stop-color:#57B5FF"/>
		<stop  offset="0.88" style="stop-color:#31D5FF"/>
		<stop  offset="0.93" style="stop-color:#16ECFF"/>
		<stop  offset="0.97" style="stop-color:#06FAFF"/>
		<stop  offset="1" style="stop-color:#00FFFF"/>
	</linearGradient>
	<path class="st3" d="M218.4,52.2c17.7,0,32,14.3,32,32s-14.3,32-32,32s-32-14.3-32-32S200.7,52.2,218.4,52.2"/>
	
		<linearGradient id="SVGID_5_" gradientUnits="userSpaceOnUse" x1="-29.5716" y1="306.2" x2="324.3961" y2="306.2" gradientTransform="matrix(1 0 0 1 0 -158)">
		<stop  offset="0" style="stop-color:#00EF77"/>
		<stop  offset="0" style="stop-color:#05EF75"/>
		<stop  offset="4.000000e-02" style="stop-color:#3FF15A"/>
		<stop  offset="8.000000e-02" style="stop-color:#72F342"/>
		<stop  offset="0.12" style="stop-color:#9DF52E"/>
		<stop  offset="0.16" style="stop-color:#C1F71D"/>
		<stop  offset="0.2" style="stop-color:#DCF810"/>
		<stop  offset="0.25" style="stop-color:#EFF807"/>
		<stop  offset="0.29" style="stop-color:#FBF902"/>
		<stop  offset="0.33" style="stop-color:#FFF900"/>
		<stop  offset="0.39" style="stop-color:#FFD62A"/>
		<stop  offset="0.53" style="stop-color:#FF7E94"/>
		<stop  offset="0.67" style="stop-color:#FF25FF"/>
		<stop  offset="0.72" style="stop-color:#C15AFF"/>
		<stop  offset="0.78" style="stop-color:#878CFF"/>
		<stop  offset="0.83" style="stop-color:#57B5FF"/>
		<stop  offset="0.88" style="stop-color:#31D5FF"/>
		<stop  offset="0.93" style="stop-color:#16ECFF"/>
		<stop  offset="0.97" style="stop-color:#06FAFF"/>
		<stop  offset="1" style="stop-color:#00FFFF"/>
	</linearGradient>
	<circle class="st4" cx="236.9" cy="148.2" r="16.5"/>
	
		<linearGradient id="SVGID_6_" gradientUnits="userSpaceOnUse" x1="330.7787" y1="785.6517" x2="654.7356" y2="785.6517" gradientTransform="matrix(1.12 0 0 1.12 -427.28 -758.83)">
		<stop  offset="0" style="stop-color:#00EF77"/>
		<stop  offset="0" style="stop-color:#05EF75"/>
		<stop  offset="4.000000e-02" style="stop-color:#3FF15A"/>
		<stop  offset="8.000000e-02" style="stop-color:#72F342"/>
		<stop  offset="0.12" style="stop-color:#9DF52E"/>
		<stop  offset="0.16" style="stop-color:#C1F71D"/>
		<stop  offset="0.2" style="stop-color:#DCF810"/>
		<stop  offset="0.25" style="stop-color:#EFF807"/>
		<stop  offset="0.29" style="stop-color:#FBF902"/>
		<stop  offset="0.33" style="stop-color:#FFF900"/>
		<stop  offset="0.39" style="stop-color:#FFD62A"/>
		<stop  offset="0.53" style="stop-color:#FF7E94"/>
		<stop  offset="0.67" style="stop-color:#FF25FF"/>
		<stop  offset="0.72" style="stop-color:#C15AFF"/>
		<stop  offset="0.78" style="stop-color:#878CFF"/>
		<stop  offset="0.83" style="stop-color:#57B5FF"/>
		<stop  offset="0.88" style="stop-color:#31D5FF"/>
		<stop  offset="0.93" style="stop-color:#16ECFF"/>
		<stop  offset="0.97" style="stop-color:#06FAFF"/>
		<stop  offset="1" style="stop-color:#00FFFF"/>
	</linearGradient>
	<circle class="st5" cx="278.2" cy="121.1" r="22.9"/>
</g>
</svg>
