<?xml version="1.0" encoding="utf-8"?>
<!-- Generator: Adobe Illustrator 19.2.1, SVG Export Plug-In . SVG Version: 6.00 Build 0)  -->
<svg version="1.1" id="Layer_1" xmlns="http://www.w3.org/2000/svg" xmlns:xlink="http://www.w3.org/1999/xlink" x="0px" y="0px"
	 viewBox="0 0 400 400" style="enable-background:new 0 0 400 400;" xml:space="preserve">
<title>db-logo-quad</title>
<path class="black" d="M207,207.6l-2.3-0.2l-21-25l2.6-2.1l19.9,23.7c5.5-4.8,10.6-10.1,15.2-15.6c7.5-9,16.7-22.5,17.7-35.6
	c0.5-6.2-0.2-12.5-2-18.4c-1.6-5.2-4.4-10.1-8.1-14.1c-7.1-7.8-17.6-12.3-29.4-12.6c-11.6-0.3-22,3.8-29.4,11.5
	c-6.6,6.6-10.1,15.7-9.6,25c0.3,5.2,2.3,10.1,5.7,14c3.2,3.8,7.5,6.5,12.2,7.8c4.1,1.1,8.4,0.9,12.4-0.7c4.4-1.7,8.1-5,11.1-9.8
	l0.9-1.4l2.8,1.8l-0.9,1.4c-3.4,5.4-7.7,9.1-12.7,11.1c-4.6,1.8-9.7,2.1-14.4,0.9c-5.4-1.4-10.3-4.5-13.9-8.8
	c-3.9-4.5-6.1-10.1-6.5-15.9c-0.5-10.2,3.4-20.2,10.5-27.5c8.1-8.4,19.4-12.8,31.9-12.6c12.7,0.3,24,5.1,31.8,13.6
	c4,4.4,7,9.7,8.8,15.3c2,6.4,2.7,13,2.2,19.6c-0.4,6.2-2.6,13-6.4,20.1c-3.4,6.2-7.5,12-12.1,17.4
	C218.7,196.7,213.1,202.4,207,207.6"/>
<path class="black" d="M53.1,244.6c0,4.2,3,4.7,5.7,4.7c11.7,0,15.6-8.9,15.6-17c0-10.2-6.5-17.5-17-17.5c-2.2,0-3.3,0.2-4.2,0.2L53.1,244.6
	L53.1,244.6z M47.8,219.1c0-4.9-2.6-4.6-5-4.6v-1.4c2.1,0.1,4.3,0.1,6.4,0.1c2.3,0,5.4-0.1,9.4-0.1c14.1,0,21.7,9.4,21.7,19
	c0,5.4-3.2,18.9-22.4,18.9c-2.8,0-5.3-0.1-7.9-0.1s-4.8,0.1-7.3,0.1v-1.4c3.3-0.3,4.8-0.4,5-4.1L47.8,219.1L47.8,219.1z"/>
<path class="black" d="M99.3,234.3c1.4,0,1.5-0.7,1.5-1.4c0-2.8-1.7-5-4.7-5c-3.3,0-5.6,2.4-6.2,6.4H99.3z M89.7,236.1c-0.1,1-0.1,2.1,0,3.1
	c0.3,5.2,3.6,9.4,8,9.4c3,0,5.3-1.6,7.3-3.6l0.8,0.8c-2.5,3.3-5.6,6.1-10.1,6.1c-8.6,0-10.4-8.4-10.4-11.9c0-10.6,7.2-13.8,11-13.8
	c4.4,0,9.1,2.8,9.2,8.5c0,0.3,0,0.7-0.1,1l-0.5,0.4H89.7L89.7,236.1z"/>
<path class="black" d="M117.3,244.9c0,2.1,2,5.5,5.6,5.5c5.8,0,8.3-5.7,8.3-10.5c0-5.9-4.4-10.8-8.7-10.8c-2,0-3.7,1.3-5.2,2.6V244.9L117.3,244.9z
	 M117.3,230.1c2.2-1.9,5.1-3.9,8.1-3.9c6.3,0,10.1,5.5,10.1,11.4c0,7.1-5.2,14.2-12.9,14.2c-2.6,0-5.2-0.7-7.6-1.9l-1.6,1.2
	l-1.1-0.6c0.5-3.2,0.8-6.4,0.8-9.7v-23.4c0-3.5-0.8-3.6-2.9-4.2v-0.9c1.9-0.6,3.8-1.4,5.6-2.3c0.4-0.2,0.8-0.4,1.2-0.6
	c0.3,0,0.4,0.3,0.4,0.8L117.3,230.1L117.3,230.1z"/>
<path class="black" d="M154.3,239c-2.8,1.1-9.8,2.3-9.8,6.4c0,2.1,1.7,3.9,3.9,3.9c2.6,0,4.2-1.6,6-3.1L154.3,239L154.3,239z M163.1,248.9
	c-1.5,1.4-3.2,2.9-5.4,2.9s-3.3-2.1-3.4-4c-2.6,2.3-5,4-8.4,4s-5.9-2.4-5.9-5.3c0.2-4.3,2.4-5.2,14.2-9.2v-3.6c0-3-1.8-4.7-5.3-4.7
	c-2.1-0.2-3.9,1.3-4.1,3.4c0,0.1,0,0.3,0,0.4c0,1.5-1.7,2.3-3,2.3c-0.6,0-1-0.4-1-1V234c0-2.9,2.4-4.2,6.2-6.2
	c1.9-1,2.8-1.7,4.9-1.7c2.4,0,6.6,1.6,6.6,4.6v15.1c0,2.2,0.8,3.1,2,3.1c0.8,0,1.5-0.3,2-0.9L163.1,248.9z"/>
<path class="black" d="M174,244.4c0,3.6,2,4.6,3.4,4.6s2.8-0.6,3.8-1.6l0.7,0.8c-1.9,2-4.3,3.7-7.2,3.7c-3.4,0-5.2-1.9-5.2-5.1v-16.9H166V229
	c2.8-2.2,4.5-3.2,7.3-7.6h0.7v5.5h8.1v2.9H174V244.4L174,244.4L174,244.4z"/>
<path class="black" d="M192.1,244.4c0,3.6,2,4.6,3.4,4.6s2.8-0.6,3.8-1.6l0.8,0.8c-1.9,2-4.3,3.7-7.2,3.7c-3.4,0-5.2-1.9-5.2-5.1V230h-3.6v-0.9
	c2.8-2.2,4.5-3.2,7.3-7.6h0.7v5.5h8.1v2.9h-8.1V244.4L192.1,244.4L192.1,244.4z"/>
<path class="black" d="M217,234.3c1.4,0,1.5-0.7,1.5-1.4c0-2.8-1.7-5-4.7-5c-3.3,0-5.6,2.4-6.2,6.4H217z M207.4,236.1c-0.1,1-0.1,2.1,0,3.1
	c0.3,5.2,3.6,9.4,8,9.4c3,0,5.3-1.6,7.3-3.6l0.8,0.8c-2.5,3.3-5.6,6.1-10.1,6.1c-8.6,0-10.4-8.4-10.4-11.9c0-10.6,7.2-13.8,11-13.8
	c4.4,0,9.1,2.8,9.2,8.5c0,0.3,0,0.7-0.1,1l-0.5,0.3L207.4,236.1L207.4,236.1z"/>
<path class="black" d="M230.4,233.5c0-2-0.6-2.6-3.1-3.6v-1c2.4-0.7,4.8-1.6,7.2-2.6c0.2,0,0.3,0.1,0.3,0.5v3.5c3.1-2.2,5.8-4.1,9.4-4.1
	c4.6,0,6.2,3.4,6.2,7.6v14c0,1.8,1.2,1.8,2.7,1.8h1v1.4c-1.9,0-3.8-0.1-5.8-0.1s-3.9,0.1-5.9,0.1v-1.4h1c1.5,0,2.6,0,2.6-1.8v-14.1
	c0-3.1-1.9-4.6-5-4.6c-1.7,0-4.5,1.4-6.3,2.6v16.1c0,1.8,1.2,1.8,2.7,1.8h1v1.4c-1.9,0-3.8-0.1-5.8-0.1s-3.9,0.1-5.9,0.1v-1.4h1
	c1.5,0,2.6,0,2.6-1.8L230.4,233.5L230.4,233.5L230.4,233.5z"/>
<path class="black" d="M265.3,244.9c0,2.1,2,5.5,5.6,5.5c5.8,0,8.3-5.7,8.3-10.5c0-5.9-4.5-10.8-8.7-10.8c-2,0-3.7,1.3-5.2,2.6L265.3,244.9
	L265.3,244.9z M265.3,230.1c2.2-1.9,5.1-3.9,8.1-3.9c6.3,0,10.1,5.5,10.1,11.4c0,7.1-5.2,14.2-13,14.2c-2.6,0-5.2-0.7-7.5-1.9
	l-1.6,1.2l-1.1-0.6c0.5-3.2,0.8-6.4,0.8-9.7v-23.4c0-3.5-0.8-3.6-2.9-4.2v-0.9c1.9-0.6,3.8-1.4,5.6-2.3c0.4-0.2,0.8-0.4,1.2-0.6
	c0.3,0,0.4,0.3,0.4,0.8L265.3,230.1L265.3,230.1z"/>
<path class="black" d="M287.5,249.6h1c1.5,0,2.6,0,2.6-1.8v-30.3c0-3.5-0.8-3.6-2.9-4.2v-0.9c1.9-0.6,3.8-1.4,5.6-2.3c0.4-0.2,0.8-0.4,1.2-0.6
	c0.3,0,0.4,0.3,0.4,0.8v37.6c0,1.8,1.2,1.8,2.7,1.8h0.9v1.4c-1.9,0-3.8-0.1-5.7-0.1s-3.9,0.1-5.9,0.1L287.5,249.6L287.5,249.6
	L287.5,249.6z"/>
<path class="black" d="M316.2,250.4c5.4,0,7.5-6.3,7.5-11c0-4.4-2.4-11.9-8.1-11.9c-5.4,0-7.5,6.3-7.5,11C308.1,243,310.5,250.4,316.2,250.4
	 M315.6,226.2c7.5,0,13.2,5,13.2,12.7c0.1,7-5.5,12.8-12.5,12.9c-7.2,0-13.1-5-13.1-12.7C303.2,232.1,308.3,226.2,315.6,226.2"/>
<path class="black" d="M343,227.6c-3.3,0-4.8,3.3-4.8,6.2c0,3.1,1.4,7.3,5.1,7.3s5.3-3,5.3-6.4S346.8,227.6,343,227.6 M345.3,251c-3.5,0-9,0-9,5.1
	c0,3.8,3.4,5.5,7.2,5.5c3.3,0,9.5-1.4,9.5-6.2C353,251.4,348.2,251,345.3,251 M356.9,230.2l-5.4-0.2c0.9,1.2,1.4,2.6,1.4,4.1
	c0,4-3.3,8.4-10.1,8.4c-1,0-2-0.1-3-0.3c-1,0.6-1.6,1.6-1.6,2.8c0,0.8,0.2,2.5,3.8,2.5c2.7,0,5.3,0.1,7.5,0.1c4.7,0,7.5,1.4,7.5,5.5
	c0,2.1-2.8,10.4-14.4,10.4c-6.9,0-10.3-3.1-10.3-6.1c0-3.4,3-5.6,6.4-6.2v-0.1c-2.3-0.6-4.8-2.2-4.8-4.7c0-0.6,0-1.2,0.2-1.7
	c1.6-0.8,3.1-1.7,4.5-2.7c-3-1.6-5.1-3.6-5.1-7.2c0-4.7,3.5-8.4,10.2-8.4c1.6,0,3.2,0.3,4.8,0.8c1.7,0.6,3.5,0.9,5.3,0.9
	c1.1,0,2.1-0.1,3.1-0.3V230.2L356.9,230.2L356.9,230.2z"/>
</svg>
